<?xml version="1.0" standalone="no"?>
<!DOCTYPE svg PUBLIC "-//W3C//DTD SVG 20010904//EN"
 "http://www.w3.org/TR/2001/REC-SVG-20010904/DTD/svg10.dtd">
<svg version="1.0" xmlns="http://www.w3.org/2000/svg"
 width="1060.000000pt" height="250.000000pt" viewBox="488 293 1060 250"
 preserveAspectRatio="xMidYMid meet">

<g transform="translate(0.000000,1024.000000) scale(0.100000,-0.100000)"
fill="#2563eb" stroke="none">
<g id="harbor-symbol">
<path d="M8887 7304 c-4 -4 -7 -29 -7 -55 0 -45 -1 -48 -32 -54 -84 -18 -187
-93 -242 -175 -24 -36 -21 -40 29 -40 l45 0 0 -150 0 -150 -57 0 c-79 0 -85
-5 -81 -76 3 -59 3 -59 36 -62 22 -2 32 -8 32 -20 0 -18 -27 -316 -75 -825
-14 -148 -25 -279 -25 -293 0 -22 -4 -24 -47 -24 -48 0 -124 11 -220 31 l-53
10 0 214 c0 245 5 231 -95 254 -52 12 -404 109 -510 141 l-60 18 -3 83 c-2 46
-7 88 -13 95 -10 13 -86 46 -606 268 -189 80 -351 146 -362 146 -10 0 -50 -13
-87 -29 -38 -16 -181 -71 -319 -122 -380 -141 -639 -242 -666 -260 l-24 -16
-3 -357 -3 -356 -27 0 c-42 0 -222 -46 -298 -76 -91 -37 -194 -97 -173 -102
10 -2 43 4 75 12 126 32 306 49 534 50 253 1 291 -4 561 -69 232 -57 340 -69
548 -62 172 6 181 7 446 75 88 23 203 47 255 53 165 20 381 1 578 -50 256 -67
342 -80 533 -81 155 0 255 15 444 65 72 19 162 41 200 49 161 33 433 30 730
-9 61 -8 133 -17 160 -20 28 -3 63 -8 79 -12 48 -9 20 16 -59 53 -167 77 -346
121 -531 131 l-121 6 -6 66 c-4 36 -29 266 -56 510 -28 244 -48 448 -45 453 3
4 21 8 40 8 l34 0 0 59 c0 68 -3 71 -91 71 l-59 0 0 150 0 150 40 0 c23 0 40
5 40 11 0 21 -72 110 -118 145 -25 19 -69 41 -98 50 l-53 15 -3 52 -3 52 -50
3 c-28 2 -54 0 -58 -4z m203 -474 l0 -150 -152 0 -153 0 3 150 3 150 150 0
149 0 0 -150z m63 -382 c3 -51 13 -160 21 -243 21 -209 66 -656 69 -680 2 -17
-6 -21 -58 -27 -56 -7 -160 -34 -311 -78 -66 -20 -214 -43 -222 -35 -4 4 36
533 58 765 9 92 12 131 26 308 l7 82 202 0 202 0 6 -92z m-2178 -103 c226 -98
416 -182 423 -187 9 -8 12 -85 12 -322 0 -171 -4 -316 -8 -321 -4 -6 -43 -16
-87 -22 -44 -7 -152 -32 -241 -56 -212 -59 -302 -71 -455 -64 -189 9 -169 -22
-169 253 l0 234 95 0 95 0 0 -211 0 -210 53 3 52 3 3 247 c2 214 0 248 -14
262 -13 14 -59 16 -360 16 -219 0 -352 -4 -365 -10 -18 -10 -19 -24 -19 -241
l0 -230 -32 6 c-92 15 -213 25 -306 25 l-103 0 3 316 3 317 85 34 c47 19 245
94 440 168 195 74 378 143 405 154 28 12 57 19 65 16 8 -2 200 -83 425 -180z
m795 -479 c124 -35 244 -69 268 -75 l42 -12 0 -159 c0 -88 -2 -160 -4 -160 -2
0 -52 11 -112 25 -83 20 -149 27 -276 32 l-168 6 0 203 c0 158 3 204 13 204 7
0 114 -29 237 -64z"/>
<path d="M6869 7091 c-13 -4 290 -65 1330 -266 158 -31 183 -40 126 -50 -200
-32 -1054 -213 -1135 -240 l-45 -15 50 5 c111 12 305 36 390 50 50 8 169 26
265 40 221 33 377 59 615 105 28 5 67 12 89 15 21 3 42 8 47 11 5 3 9 30 9 59
0 64 18 57 -195 85 -82 11 -321 45 -530 75 -209 31 -504 71 -655 89 -340 42
-345 43 -361 37z"/>
<path d="M5430 5205 c-58 -8 -124 -21 -145 -28 -38 -14 -36 -14 50 -9 199 10
440 -30 724 -122 257 -84 296 -91 506 -90 196 0 175 -3 508 83 310 80 482 80
777 1 329 -88 367 -94 570 -94 208 0 267 10 545 100 218 70 303 92 442 114 70
12 133 23 138 25 29 13 -359 -5 -435 -20 -463 -93 -514 -100 -680 -92 -124 7
-181 17 -400 76 -182 48 -265 62 -420 68 -194 7 -311 -7 -544 -67 -395 -101
-511 -104 -826 -20 -259 69 -334 81 -525 85 -120 3 -215 -1 -285 -10z"/>
<path d="M7260 4925 c-149 -24 -345 -82 -410 -120 l-25 -15 25 5 c14 2 99 14
190 26 256 32 411 35 645 9 313 -33 384 -39 470 -39 l80 0 -155 45 c-265 76
-372 95 -565 100 -115 2 -198 -1 -255 -11z"/>
 </g>
<g id="dataharbor-wordmark" transform="translate(5400,1850)">
<path d="M8549 4473 c0 -82 -1 -262 -2 -401 l-2 -252 58 0 c31 0 57 4 57 9 0
5 17 3 38 -5 89 -32 178 -12 243 55 57 59 75 116 72 230 -1 69 -6 93 -30 140
-37 74 -82 101 -171 101 -66 0 -92 -9 -129 -43 l-23 -20 0 166 0 167 -55 0
-55 0 -1 -147z m289 -229 c38 -26 52 -67 52 -149 0 -89 -15 -131 -61 -169 -29
-25 -39 -28 -83 -23 -75 7 -86 26 -86 152 0 56 5 117 11 134 21 61 115 92 167
55z"/>
<path d="M4880 4215 l0 -395 141 0 c176 0 257 17 338 71 110 73 144 150 145
324 1 147 -15 202 -81 275 -85 95 -167 120 -393 120 l-150 0 0 -395z m380 265
c144 -80 173 -352 51 -483 -48 -53 -96 -70 -208 -75 l-103 -5 0 298 0 297 108
-4 c91 -3 114 -7 152 -28z"/>
<path d="M6950 4215 l0 -395 60 0 60 0 0 185 0 185 180 0 180 0 0 -185 0 -185
60 0 60 0 0 395 0 395 -60 0 -60 0 0 -165 0 -165 -180 0 -180 0 0 165 0 165
-60 0 -60 0 0 -395z"/>
<path d="M6138 4458 c-38 -10 -38 -10 -38 -64 l0 -54 -35 0 c-35 0 -35 0 -35
-45 0 -45 0 -45 35 -45 l35 0 0 -165 c0 -120 4 -175 14 -200 25 -60 84 -83
181 -70 l55 6 0 44 0 43 -51 -1 c-76 -3 -79 5 -79 192 l0 156 67 0 68 0 3 43
3 42 -70 0 -71 0 0 65 c0 73 -2 74 -82 53z"/>
<path d="M8405 4351 c-48 -12 -75 -30 -95 -64 l-20 -32 0 27 c0 50 -9 58 -61
58 l-49 0 0 -260 0 -260 54 0 54 0 4 163 c3 129 7 168 21 194 23 43 57 64 112
71 l45 5 0 47 c0 34 -4 50 -16 54 -9 3 -16 6 -17 5 -1 -1 -15 -4 -32 -8z"/>
<path d="M5630 4324 c-30 -14 -56 -27 -58 -29 -3 -2 19 -85 22 -85 1 0 23 11
50 25 35 18 66 25 103 25 47 0 59 -4 84 -29 19 -19 29 -40 29 -59 l0 -29 -86
-6 c-98 -7 -165 -34 -198 -79 -30 -42 -33 -133 -6 -176 48 -77 183 -95 259
-34 l39 31 6 -29 c5 -28 8 -30 56 -30 l50 0 0 183 c0 100 -5 199 -11 220 -14
51 -63 104 -107 117 -70 19 -172 12 -232 -16z m230 -306 c-1 -77 -40 -118
-112 -118 -60 0 -89 44 -72 107 8 31 78 63 137 63 l47 0 0 -52z"/>
<path d="M6508 4336 c-46 -16 -91 -45 -85 -54 2 -4 9 -21 16 -39 l12 -32 46
25 c65 34 154 34 188 -1 14 -13 25 -33 25 -44 0 -11 3 -26 6 -35 5 -14 -3 -16
-53 -16 -71 0 -165 -23 -203 -50 -88 -63 -74 -217 24 -264 65 -31 167 -15 215
33 15 15 23 18 25 9 15 -48 15 -48 65 -48 l50 0 -2 193 c-3 182 -4 196 -28
242 -34 69 -86 95 -188 95 -42 -1 -93 -7 -113 -14z m210 -311 c3 -48 -26 -101
-64 -115 -38 -15 -87 -12 -112 6 -25 17 -31 78 -9 107 18 26 85 47 137 44 45
-2 45 -2 48 -42z"/>
<path d="M7760 4341 c-35 -11 -88 -39 -95 -51 -5 -9 20 -70 29 -70 3 0 25 9
51 20 105 45 199 17 212 -62 l6 -38 -60 0 c-71 0 -165 -23 -203 -50 -57 -41
-77 -133 -42 -200 29 -54 91 -83 170 -77 52 4 70 10 102 36 l39 31 3 -28 c3
-25 7 -27 56 -30 l52 -3 0 178 c-1 247 -12 286 -100 331 -35 17 -60 22 -120
21 -41 0 -86 -4 -100 -8z m200 -310 c0 -57 -15 -88 -52 -111 -66 -40 -148 -12
-148 51 0 57 62 97 153 98 l47 1 0 -39z"/>
<path d="M9203 4325 c-85 -39 -133 -129 -133 -251 0 -81 25 -149 71 -195 89
-89 272 -91 362 -4 62 60 72 87 72 205 0 89 -3 111 -22 145 -47 89 -113 125
-225 125 -56 0 -85 -6 -125 -25z m187 -78 c40 -19 70 -91 70 -164 0 -109 -43
-171 -123 -180 -89 -10 -136 41 -145 159 -9 124 41 198 133 198 22 0 51 -6 65
-13z"/>
<path d="M9843 4330 c-18 -11 -38 -29 -45 -40 -19 -29 -28 -25 -28 15 l0 35
-55 0 -55 0 0 -260 0 -260 60 0 60 0 0 160 c0 172 5 193 53 238 15 15 42 25
75 29 l52 6 0 48 0 49 -42 0 c-25 0 -57 -8 -75 -20z"/>
</g>
</g>
</svg>
