<svg version="1.1" id="Layer_1" xmlns="http://www.w3.org/2000/svg" xmlns:xlink="http://www.w3.org/1999/xlink" x="0px" y="0px" viewBox="0 0 294 74" style="enable-background:new 0 0 294 74;" xml:space="preserve">
 <g>
  <path d="M18,9.1c0,4.9-4.2,8.9-9.1,8.7C4,17.8,0,13.9,0,8.9S4,0,8.9,0S18,4,18,9.1z M16.4,72.8h-15V23.3h15.2L16.4,72.8z
		 M74.4,44.1v28.7h-15V46.1c0-6.1-3.8-10.1-9.1-10.1S41,40.4,41,46.9v25.9H25.7V23.3H41v6.5c3-4.9,8.3-7.7,14-7.7
		C66.5,22.2,74.4,30.5,74.4,44.1z M119.7,23.9v14.2c-2.6-1.4-5.5-2-8.3-2c-6.9,0-12.3,5.7-12.3,15v21.6H83.9V23.3h15.2v9.3
		c1.6-6.1,6.9-10.5,13.3-10.5C114.8,22.2,117.3,22.8,119.7,23.9z M144.8,9.1c0,4.9-4.2,8.9-9.1,8.7c-4.9,0-8.9-4-8.9-8.9
		s4-8.9,8.9-8.9C140.7,0,144.8,4,144.8,9.1z M143.3,72.8H128V23.3h15.2V72.8z M203.4,23.3l-22,49.5h-12.3l-22-49.5h16.6l11.3,30.1
		l11.5-30.1H203.4L203.4,23.3z M250.3,51.2h-34c1.4,6.3,6.9,10.3,15.8,10.3c5.9-0.2,11.7-2.2,16.4-5.7v12.7
		c-4,3.4-10.5,5.5-19.2,5.5c-16,0-26.7-10.3-26.7-25.9c0-14.4,10.3-25.9,25.3-25.9C244.4,22.2,252.9,35,250.3,51.2L250.3,51.2z
		 M235.5,41.4c-0.2-4.6-4.2-8.1-8.7-7.9c-4.7,0-9.1,3.2-10.1,7.9H235.5z M294,23.9v14.2c-2.6-1.4-5.5-2-8.3-2
		c-6.9,0-12.3,5.7-12.5,15v21.6H258V23.3h15.2v9.3c1.6-6.1,6.9-10.3,13.3-10.5C289.1,22.4,291.6,22.8,294,23.9z">
  </path>
 </g>
</svg>