<svg version="1.1" id="Layer_1" xmlns:x="ns_extend;" xmlns:i="ns_ai;" xmlns:graph="ns_graphs;" xmlns="http://www.w3.org/2000/svg" xmlns:xlink="http://www.w3.org/1999/xlink" x="0px" y="0px" viewBox="0 0 227 50" style="enable-background:new 0 0 227 50;" xml:space="preserve">
 <style type="text/css">
  .st0{fill:#FFFFFF;}
	.st1{opacity:0.8;}
	.st2{clip-path:url(#SVGID_2_);}
	.st3{filter:url(#Adobe_OpacityMaskFilter);}
	.st4{clip-path:url(#SVGID_4_);fill:url(#SVGID_6_);}
	.st5{clip-path:url(#SVGID_4_);mask:url(#SVGID_5_);fill:url(#SVGID_7_);}
	.st6{filter:url(#Adobe_OpacityMaskFilter_1_);}
	.st7{clip-path:url(#SVGID_9_);fill:url(#SVGID_11_);}
	.st8{clip-path:url(#SVGID_9_);mask:url(#SVGID_10_);fill:url(#SVGID_12_);}
	.st9{clip-path:url(#SVGID_14_);}
	.st10{filter:url(#Adobe_OpacityMaskFilter_2_);}
	.st11{clip-path:url(#SVGID_16_);fill:url(#SVGID_18_);}
	.st12{clip-path:url(#SVGID_16_);mask:url(#SVGID_17_);fill:url(#SVGID_19_);}
	.st13{opacity:0.7;}
	.st14{clip-path:url(#SVGID_21_);}
	.st15{filter:url(#Adobe_OpacityMaskFilter_3_);}
	.st16{clip-path:url(#SVGID_23_);fill:url(#SVGID_25_);}
	.st17{clip-path:url(#SVGID_23_);mask:url(#SVGID_24_);fill:url(#SVGID_26_);}
	.st18{clip-path:url(#SVGID_28_);}
	.st19{filter:url(#Adobe_OpacityMaskFilter_4_);}
	.st20{clip-path:url(#SVGID_30_);fill:url(#SVGID_32_);}
	.st21{clip-path:url(#SVGID_30_);mask:url(#SVGID_31_);fill:url(#SVGID_33_);}
	.st22{clip-path:url(#SVGID_35_);}
	.st23{filter:url(#Adobe_OpacityMaskFilter_5_);}
	.st24{clip-path:url(#SVGID_37_);fill:url(#SVGID_39_);}
	.st25{clip-path:url(#SVGID_37_);mask:url(#SVGID_38_);fill:url(#SVGID_40_);}
 </style>
 <metadata>
  <sfw xmlns="ns_sfw;">
   <slices>
   </slices>
   <sliceSourceBounds bottomLeftOrigin="true" height="91.4" width="248.4" x="-162.2" y="-243.4">
   </sliceSourceBounds>
  </sfw>
 </metadata>
 <g>
  <path class="st0" d="M222.8,40.1c-1.1,1.2-2.8,1.5-5.1,1.5c-1.7,0-3.1,0-4-0.5c-0.9-0.5-1.2-1.3-1.2-3.7V18.8
		c0-4.1,0.5-4.3,4.2-4.6v-1.6h-9.6v6.2v4.9v13.5c0,0.3,0,0.6,0,0.9h0c0,2.1-1.7,3.9-3.9,3.9c-0.2,0-0.4,0-0.6,0c0,0-0.1,0-0.1,0
		c-2-0.3-3.3-1-5.4-3.5c-3-3.6-7.3-8.7-10.6-13.3c2.6-2.7,5.2-5.3,7.7-7.6c2.8-2.5,4.4-3.1,7.7-3.4v-1.6h-12.1v1.6l1,0.1
		c2.2,0.3,2.2,0.9,1,2.5c-1.8,2.2-4.3,4.9-7.3,7.9c-1.4,1.4-2.5,2.1-3.5,2.4v-8.2c0-4.1,0.4-4.4,3.9-4.7v-1.6h-13.4v1.6
		c3.7,0.3,4.1,0.6,4.1,4.7v18.3c0,0.3,0,0.6,0,0.9h0c0,0,0,0,0,0c0,2.1-1.7,3.9-3.9,3.9c-1.4,0-2.6-0.7-3.3-1.8
		c-0.5-0.7-1-1.8-1.6-3.4c-3.1-8.2-6.1-16.6-9.2-24.9l-2.1,0.5l-10.5,27c-0.5,0.9-1.4,1.5-2.5,1.5c-0.9,0-1.6-0.4-2.1-1
		c0,0-0.1-0.1-0.1-0.1c0,0,0,0,0,0c-0.1-0.1-0.2-0.2-0.3-0.3l-6.2-10.9c2.9-1.2,5.3-3.1,5.9-6.4c0.1-0.5,0.1-0.9,0.1-1.5
		c0-2.9-1.3-5-3.2-6.3c-1.9-1.3-4.2-1.7-8.2-1.7h-8.7c0,0,0,2.2,0,6.1v18.5c0,0.3,0,0.6,0,0.9h0c0,2.1-1.7,3.9-3.9,3.9
		c-2.1,0-3.9-1.7-3.9-3.9h0c0-0.3,0-0.5,0-0.8V18.8c0-4.1,0.4-4.3,4.1-4.6v-1.6h-13.7v1.6c3.7,0.3,4.2,0.6,4.2,4.6v18.5
		c0,0.3,0,0.5,0,0.8c0,0,0,0,0,0c0,2.1-1.7,3.9-3.9,3.9c-2.1,0-3.9-1.7-3.9-3.9h0c0-0.5,0-1,0-1.6l-0.5-17.4
		C98,14.8,98,12.6,98,12.6h-4.8L83,34.6l-10-22H64v1.6c4.2,0.4,4.5,0.8,4.1,6.6l-0.7,9.5c-0.4,5-0.7,7.3-0.9,8.9
		c-0.4,1.8-1.3,2.5-4.1,2.8v1.5h11.4v-1.5c-3.2-0.3-4.2-0.7-4.3-2.8c-0.1-1.7-0.1-3.9,0-7.8l0.7-12.9h0.1l10.2,24.8h1.2l11.1-25.3
		H93l0.1,18.6c0,4.7-0.2,5-3.9,5.4v1.5h13h0.5h12.7h0.5h13.2V42c-3.7-0.4-4.1-0.7-4.1-4.7v-7.1h1.1c2,0,2.8,0.6,3.6,2
		c1.4,2.4,2.5,5.8,3.9,7.9c0.2,0.3,0.3,0.5,0.5,0.7c0.2,0.3,0.4,0.5,0.6,0.8c1.1,1.4,2.8,2.4,4.6,2.8c0.4,0.1,0.9,0.1,1.4,0.1
		c0.2,0,0.4,0,0.5,0c2.8-0.2,5.2-1.9,6.3-4.3c0.1-0.1,0.1-0.3,0.2-0.5c0,0,0,0,0-0.1c0,0,0,0,0,0c0,0,0-0.1,0.1-0.1c0,0,0,0,0,0
		c0,0,0,0.1,0,0.1c0,0,0-0.1,0-0.1c0-0.1,0-0.1,0.1-0.2c0-0.1,0.1-0.2,0.1-0.3c0,0,0,0,0,0c0.7-1.8,1.3-4.6,1.9-6.3h9.6
		c0.9,2.3,1.7,4.6,2.3,6.2c0.7,1.9,0.4,2.4-2.6,2.9v1.5h12.4h13.5V42c-3.8-0.4-4.3-0.7-4.3-4.8v-8.7c0.7-0.1,1.4,0.1,2.4,1.5
		c3.8,4.9,7.8,10,10.6,13.4h8.6h0.1h22.7c0.4-1.4,1.4-6,1.7-7.8l-1.5-0.4C224.6,37.5,223.7,39.1,222.8,40.1 M131.6,27.1
		c-1.2,0.9-2.7,1.3-5,1.3H125V16.8c0-1.1,0.1-1.6,0.5-1.9c0.3-0.2,0.9-0.4,1.9-0.5c0.1,0,0.3,0,0.5,0c3.1,0,6.2,1.8,6.2,6.9
		c0,0.3,0,0.6,0,0.9C133.8,24.3,133.1,25.9,131.6,27.1 M150.7,30.5c1.3-3.6,2.7-7.3,4.1-11h0.1l3.9,11H150.7z">
  </path>
  <path class="st0" d="M47.8,7.3C47.8,7.3,47.8,7.3,47.8,7.3c0-0.1,0-0.1-0.1-0.1c0,0,0-0.1,0-0.1c0,0,0,0,0,0c0,0,0-0.1-0.1-0.1
		c0-0.1-0.1-0.2-0.1-0.2l0,0c0,0,0,0,0,0c-0.4-0.8-1.1-1.4-1.9-1.9C39.9,1.7,32.9,0,25.7,0C19.2,0,13,1.3,7.7,3.9
		C5.9,4.7,4.3,6.1,2.8,8.6l-2.1,3.7c0.2-0.3,0.4-0.6,0.7-0.9c0.3-0.4,0.8-0.7,1.2-1C2.8,10.3,3,10.1,3.2,10c0,0,0,0,0,0
		c0.1,0,0.1-0.1,0.2-0.1c0,0,0,0,0,0c0.1,0,0.1-0.1,0.2-0.1c0,0,0,0,0,0c0.1,0,0.1-0.1,0.2-0.1c0,0,0,0,0,0C3.9,9.7,4,9.6,4,9.6
		c0,0,0,0,0,0c0.1,0,0.1-0.1,0.2-0.1c0,0,0,0,0,0c0.1,0,0.1-0.1,0.2-0.1c0,0,0,0,0,0c1.6-0.8,3.3-1.4,5-1.9v0c0,0,0,0,0,0
		c0.1,0,0.1,0,0.2-0.1h0c0.2-0.1,0.5-0.1,0.7-0.2c0,0,0,0,0,0c0,0,0.1,0,0.1,0c0,0,0.1,0,0.1,0c0,0,0.1,0,0.1,0c0,0,0.1,0,0.1,0
		c0,0,0.1,0,0.1,0c2.8-0.6,6-1.1,9.3-1c12.8,0,18.4,2.7,18.2,9.2c0,0.1,0,0.2,0,0.3c-0.3,6.1-3.3,15.2-12.9,22.4
		c0.1,0,0.1,0.1,0.2,0.1c5.5,3.4,10.6-0.1,17-11.2c1.6-2.8,2.8-5.7,3.7-8.4c0-0.1,0-0.1,0.1-0.2c0.2-0.5,0.3-1,0.4-1.6c0,0,0,0,0,0
		c0.3-1.2,0.6-2.4,0.7-3.6c0,0,0-0.1,0-0.1c0-0.1,0-0.3,0-0.4c0-0.1,0-0.1,0-0.2c0-0.2,0-0.3,0.1-0.5c0-0.1,0-0.2,0-0.4
		c0.1-0.7,0.1-1.5,0.1-2.3C48.2,8.6,48.1,7.9,47.8,7.3">
  </path>
  <g class="st1">
   <g>
    <defs>
     <rect id="SVGID_1_" x="0.7" y="0" width="47.5" height="39.3">
     </rect>
    </defs>
    <clipPath id="SVGID_2_">
     <use href="#SVGID_1_" style="overflow:visible;">
     </use>
    </clipPath>
    <g class="st2">
     <defs>
      <path id="SVGID_3_" d="M47.8,7.3C47.8,7.3,47.8,7.3,47.8,7.3c0-0.1,0-0.1-0.1-0.1c0,0,0-0.1,0-0.1c0,0,0,0,0,0
						c0,0,0-0.1-0.1-0.1h0c0-0.1-0.1-0.2-0.1-0.2l0,0c0,0,0,0,0,0c-0.4-0.8-1.1-1.4-1.9-1.9C39.9,1.7,32.9,0,25.7,0
						C19.2,0,13,1.3,7.7,3.9C5.9,4.7,4.3,6.1,2.8,8.6l-2.1,3.7c0.2-0.3,0.4-0.6,0.7-0.9c0.3-0.4,0.8-0.7,1.2-1
						C2.8,10.3,3,10.1,3.2,10c0,0,0,0,0,0c0.1,0,0.1-0.1,0.2-0.1c0,0,0,0,0,0c0.1,0,0.1-0.1,0.2-0.1c0,0,0,0,0,0
						c0.1,0,0.1-0.1,0.2-0.1c0,0,0,0,0,0C3.9,9.7,4,9.6,4,9.6c0,0,0,0,0,0c0.1,0,0.1-0.1,0.2-0.1c0,0,0,0,0,0c0.1,0,0.1-0.1,0.2-0.1
						c0,0,0,0,0,0c1.6-0.8,3.3-1.4,5-1.9v0c0,0,0,0,0,0c0.1,0,0.1,0,0.2-0.1h0c0.2-0.1,0.5-0.1,0.7-0.2c0,0,0,0,0,0c0,0,0.1,0,0.1,0
						c0,0,0.1,0,0.1,0c0,0,0.1,0,0.1,0c0,0,0.1,0,0.1,0c0,0,0.1,0,0.1,0c2.8-0.6,6-1.1,9.3-1c12.8,0,18.4,2.7,18.2,9.2
						c0,0.1,0,0.2,0,0.3c-0.3,6.1-3.3,15.2-12.9,22.4c0.1,0,0.1,0.1,0.2,0.1c5.5,3.4,10.6-0.1,17-11.2c1.6-2.8,2.8-5.7,3.7-8.4
						c0-0.1,0-0.1,0.1-0.2c0.2-0.5,0.3-1,0.5-1.6c0,0,0,0,0,0c0.3-1.2,0.6-2.4,0.7-3.6c0,0,0-0.1,0-0.1c0-0.1,0-0.3,0-0.4
						c0-0.1,0-0.1,0-0.2c0-0.2,0-0.3,0.1-0.5c0-0.1,0-0.2,0-0.4c0.1-0.8,0.1-1.5,0.1-2.3C48.2,8.6,48.1,7.9,47.8,7.3">
      </path>
     </defs>
     <clipPath id="SVGID_4_">
      <use xlink:href="#SVGID_3_" style="overflow:visible;">
      </use>
     </clipPath>
     <defs>
      <filter id="Adobe_OpacityMaskFilter" filterUnits="userSpaceOnUse" x="-6.9" y="-8.7" width="62.8" height="59">
       <feColorMatrix type="matrix" values="1 0 0 0 0  0 1 0 0 0  0 0 1 0 0  0 0 0 1 0">
       </feColorMatrix>
      </filter>
     </defs>
     <mask maskUnits="userSpaceOnUse" x="-6.9" y="-8.7" width="62.8" height="59" id="SVGID_5_">
      <g class="st3">
       <linearGradient id="SVGID_6_" gradientUnits="userSpaceOnUse" x1="31.263" y1="452.5812" x2="33.0414" y2="452.5812" gradientTransform="matrix(-4.9583 -26.0308 -26.0308 4.9583 11964.0332 -1391.2369)">
        <stop offset="0" style="stop-color:#FFFFFF">
        </stop>
        <stop offset="6.666560e-02" style="stop-color:#FFFFFF">
        </stop>
        <stop offset="0.1069" style="stop-color:#E3E3E3">
        </stop>
        <stop offset="0.1571" style="stop-color:#C6C6C6">
        </stop>
        <stop offset="0.2007" style="stop-color:#B4B4B4">
        </stop>
        <stop offset="0.2326" style="stop-color:#AEAEAE">
        </stop>
        <stop offset="0.5642" style="stop-color:#333333">
        </stop>
        <stop offset="0.8809" style="stop-color:#C6C6C6">
        </stop>
        <stop offset="1" style="stop-color:#FFFFFF">
        </stop>
       </linearGradient>
       <polygon class="st4" points="2.4,50.2 -6.9,1.5 46.6,-8.7 55.9,40.1 						">
       </polygon>
      </g>
     </mask>
     <linearGradient id="SVGID_7_" gradientUnits="userSpaceOnUse" x1="31.263" y1="452.5812" x2="33.0414" y2="452.5812" gradientTransform="matrix(-4.9583 -26.0308 -26.0308 4.9583 11964.0352 -1391.2371)">
      <stop offset="0" style="stop-color:#8E9CAC">
      </stop>
      <stop offset="6.666560e-02" style="stop-color:#8E9CAC">
      </stop>
      <stop offset="0.2326" style="stop-color:#8E9CAC">
      </stop>
      <stop offset="0.5642" style="stop-color:#8E9CAC">
      </stop>
      <stop offset="1" style="stop-color:#8E9CAC">
      </stop>
     </linearGradient>
     <polygon class="st5" points="2.4,50.2 -6.9,1.5 46.6,-8.7 55.9,40.1 				">
     </polygon>
    </g>
   </g>
  </g>
  <g>
   <defs>
    <path id="SVGID_8_" d="M7.7,3.9C5.9,4.7,4.3,6.1,2.8,8.6l-2.1,3.6c0.2-0.3,0.4-0.6,0.7-0.9c0.3-0.4,0.8-0.7,1.2-1
				C2.8,10.3,3,10.1,3.2,10c0,0,0,0,0,0c0.1,0,0.1-0.1,0.2-0.1c0,0,0,0,0,0c0.1,0,0.1-0.1,0.2-0.1c0,0,0,0,0,0
				c0.1,0,0.1-0.1,0.2-0.1c0,0,0,0,0,0C3.9,9.7,4,9.6,4,9.6c0,0,0,0,0,0c0.1,0,0.1-0.1,0.2-0.1c0,0,0,0,0,0c0.1,0,0.1-0.1,0.2-0.1
				c0,0,0,0,0,0c1.6-0.8,3.3-1.4,5-1.9v0c0,0,0,0,0,0c0.1,0,0.1,0,0.2-0.1h0c0.2-0.1,0.5-0.1,0.7-0.2c0,0,0,0,0,0c0,0,0.1,0,0.1,0
				c0,0,0.1,0,0.1,0c0,0,0.1,0,0.1,0c0,0,0.1,0,0.1,0c0,0,0.1,0,0.1,0c2.8-0.6,6-1.1,9.3-1c12.8,0,18.4,2.7,18.2,9.2
				c0,0.1,0,0.2,0,0.3c-0.3,6.1-3.3,15.2-12.9,22.4c0.1,0,0.1,0.1,0.2,0.1c5.5,3.4,10.6-0.1,17-11.2c1.6-2.8,2.8-5.7,3.7-8.4
				c0-0.1,0-0.1,0.1-0.2c0.2-0.5,0.3-1,0.4-1.6c0,0,0,0,0-0.1c0.3-1.2,0.5-2.4,0.7-3.6c0,0,0-0.1,0-0.1c0-0.1,0-0.3,0-0.4
				c0-0.1,0-0.1,0-0.2c0-0.2,0-0.3,0.1-0.5c0-0.1,0-0.2,0-0.4c0.1-0.8,0.1-1.5,0.1-2.3c0-0.7-0.2-1.3-0.4-1.9c0,0,0,0,0-0.1
				c0,0,0-0.1,0-0.1c0,0,0-0.1,0-0.1c0,0,0,0,0,0c0,0,0-0.1-0.1-0.1c0-0.1-0.1-0.2-0.1-0.2l0,0c0,0,0,0,0,0
				c-0.4-0.8-1.1-1.4-1.9-1.9C39.9,1.7,32.9,0,25.7,0C19.2,0,13,1.3,7.7,3.9">
    </path>
   </defs>
   <clipPath id="SVGID_9_">
    <use xlink:href="#SVGID_8_" style="overflow:visible;">
    </use>
   </clipPath>
   <defs>
    <filter id="Adobe_OpacityMaskFilter_1_" filterUnits="userSpaceOnUse" x="-18.8" y="-22.4" width="86.7" height="86.3">
     <feColorMatrix type="matrix" values="1 0 0 0 0  0 1 0 0 0  0 0 1 0 0  0 0 0 1 0">
     </feColorMatrix>
    </filter>
   </defs>
   <mask maskUnits="userSpaceOnUse" x="-18.8" y="-22.4" width="86.7" height="86.3" id="SVGID_10_">
    <g class="st6">
     <radialGradient id="SVGID_11_" cx="1.9071" cy="429.2242" r="1.7784" gradientTransform="matrix(4.7547 -6.7126 -6.7126 -4.7547 2903.2605 2068.6677)" gradientUnits="userSpaceOnUse">
      <stop offset="0" style="stop-color:#FFFFFF">
      </stop>
      <stop offset="0.3" style="stop-color:#FFFFFF">
      </stop>
      <stop offset="1" style="stop-color:#000000">
      </stop>
     </radialGradient>
     <polygon class="st7" points="-18.8,27.6 16.6,-22.4 67.8,13.9 32.4,63.9 				">
     </polygon>
    </g>
   </mask>
   <radialGradient id="SVGID_12_" cx="1.9071" cy="429.2242" r="1.7784" gradientTransform="matrix(4.7547 -6.7126 -6.7126 -4.7547 2903.2605 2068.6677)" gradientUnits="userSpaceOnUse">
    <stop offset="0" style="stop-color:#FFFFFF">
    </stop>
    <stop offset="0.3" style="stop-color:#FFFFFF">
    </stop>
    <stop offset="1" style="stop-color:#FFFFFF">
    </stop>
   </radialGradient>
   <polygon class="st8" points="-18.8,27.6 16.6,-22.4 67.8,13.9 32.4,63.9 		">
   </polygon>
  </g>
  <path class="st0" d="M1.1,11.7C1.1,11.7,1.1,11.7,1.1,11.7C1,11.8,1,11.8,1,11.8c0,0,0,0.1-0.1,0.1c0,0,0,0,0,0c0,0,0,0.1-0.1,0.1
		v0c0,0.1-0.1,0.2-0.1,0.2l0,0c0,0,0,0,0,0C0.3,13,0,13.9,0,14.8c0.2,6.6,2.2,13.4,5.8,19.7c3.2,5.6,7.5,10.3,12.3,13.7
		c1.6,1.1,3.6,1.8,6.5,1.8h4.2c-0.4,0-0.7,0-1.1-0.1c-0.5-0.1-1-0.3-1.5-0.5c-0.2-0.1-0.4-0.2-0.6-0.4c0,0,0,0,0,0
		c-0.1,0-0.1-0.1-0.2-0.1c0,0,0,0,0,0c-0.1,0-0.1-0.1-0.2-0.1c0,0,0,0,0,0c-0.1,0-0.1-0.1-0.2-0.1c0,0,0,0,0,0
		c-0.1,0-0.1-0.1-0.2-0.1c0,0,0,0,0,0c-0.1,0-0.1-0.1-0.2-0.1c0,0,0,0,0,0c-0.1,0-0.1-0.1-0.2-0.1c0,0,0,0,0,0
		c-1.5-1-2.9-2.2-4.1-3.4c0,0,0,0,0,0c0,0-0.1-0.1-0.1-0.1l0,0c-0.2-0.2-0.4-0.4-0.5-0.6c0,0,0,0,0,0c0,0-0.1-0.1-0.1-0.1
		c0,0,0,0-0.1-0.1c0,0-0.1-0.1-0.1-0.1c0,0,0,0-0.1-0.1c0,0-0.1-0.1-0.1-0.1c-2-2.1-3.9-4.7-5.6-7.5c-6.4-11.1-6.9-17.3-1.2-20.4
		c0.1,0,0.1-0.1,0.2-0.1c5.5-2.8,14.9-4.8,25.9,0c0-0.1,0-0.2,0-0.3c0.2-6.5-5.4-9.2-18.2-9.2c-3.2,0-6.4,0.4-9.1,1
		c-0.1,0-0.1,0-0.2,0c-0.5,0.1-1,0.2-1.6,0.4c0,0,0,0,0,0C8.3,7.9,7.2,8.3,6,8.7c0,0-0.1,0-0.1,0c-0.1,0-0.2,0.1-0.4,0.1
		C5.5,8.9,5.4,9,5.4,9C5.2,9.1,5.1,9.1,4.9,9.2c-0.1,0-0.2,0.1-0.3,0.2c-0.7,0.3-1.4,0.7-2,1C2,10.7,1.5,11.2,1.1,11.7">
  </path>
  <g class="st1">
   <g>
    <defs>
     <rect id="SVGID_13_" y="6.1" width="38.7" height="43.9">
     </rect>
    </defs>
    <clipPath id="SVGID_14_">
     <use xlink:href="#SVGID_13_" style="overflow:visible;">
     </use>
    </clipPath>
    <g class="st9">
     <defs>
      <path id="SVGID_15_" d="M1.1,11.7C1.1,11.7,1.1,11.7,1.1,11.7C1,11.8,1,11.8,1,11.8c0,0,0,0.1-0.1,0.1c0,0,0,0,0,0
						c0,0,0,0.1-0.1,0.1v0c0,0.1-0.1,0.2-0.1,0.2l0,0c0,0,0,0,0,0C0.3,13,0,13.9,0,14.8c0.2,6.6,2.2,13.4,5.8,19.7
						c3.2,5.6,7.5,10.3,12.3,13.7c1.6,1.1,3.6,1.8,6.5,1.8h4.2c-0.4,0-0.7,0-1.1-0.1c-0.5-0.1-1-0.3-1.5-0.5
						c-0.2-0.1-0.4-0.2-0.6-0.4c0,0,0,0,0,0c-0.1,0-0.1-0.1-0.2-0.1c0,0,0,0,0,0c-0.1,0-0.1-0.1-0.2-0.1c0,0,0,0,0,0
						c-0.1,0-0.1-0.1-0.2-0.1c0,0,0,0,0,0c-0.1,0-0.1-0.1-0.2-0.1c0,0,0,0,0,0c-0.1,0-0.1-0.1-0.2-0.1c0,0,0,0,0,0
						c-0.1,0-0.1-0.1-0.2-0.1c0,0,0,0,0,0c-1.5-1-2.9-2.2-4.1-3.4c0,0,0,0,0,0c0,0-0.1-0.1-0.1-0.1v0c-0.2-0.2-0.4-0.4-0.5-0.6
						c0,0,0,0,0,0c0,0-0.1-0.1-0.1-0.1c0,0,0,0-0.1-0.1c0,0-0.1-0.1-0.1-0.1c0,0,0,0-0.1-0.1c0,0-0.1-0.1-0.1-0.1
						c-2-2.1-3.9-4.7-5.6-7.5c-6.4-11.1-6.9-17.3-1.2-20.4c0.1,0,0.1-0.1,0.2-0.1c5.5-2.8,14.9-4.8,25.9,0c0-0.1,0-0.2,0-0.3
						c0.2-6.5-5.4-9.2-18.2-9.2c-3.2,0-6.4,0.4-9.1,1c-0.1,0-0.1,0-0.2,0c-0.5,0.1-1,0.2-1.6,0.4c0,0,0,0,0,0C8.3,7.9,7.2,8.3,6,8.7
						c0,0-0.1,0-0.1,0c-0.1,0-0.2,0.1-0.4,0.1C5.5,8.9,5.4,9,5.4,9C5.2,9.1,5.1,9.1,4.9,9.2C4.8,9.2,4.7,9.3,4.6,9.3
						c-0.7,0.3-1.4,0.7-2,1C2,10.7,1.5,11.2,1.1,11.7">
      </path>
     </defs>
     <clipPath id="SVGID_16_">
      <use xlink:href="#SVGID_15_" style="overflow:visible;">
      </use>
     </clipPath>
     <defs>
      <filter id="Adobe_OpacityMaskFilter_2_" filterUnits="userSpaceOnUse" x="-14.4" y="-6.7" width="67.7" height="69.4">
       <feColorMatrix type="matrix" values="1 0 0 0 0  0 1 0 0 0  0 0 1 0 0  0 0 0 1 0">
       </feColorMatrix>
      </filter>
     </defs>
     <mask maskUnits="userSpaceOnUse" x="-14.4" y="-6.7" width="67.7" height="69.4" id="SVGID_17_">
      <g class="st10">
       <linearGradient id="SVGID_18_" gradientUnits="userSpaceOnUse" x1="32.1382" y1="445.0721" x2="33.9166" y2="445.0721" gradientTransform="matrix(10.9026 -29.2189 -29.2189 -10.9026 12666.5645 5838.3525)">
        <stop offset="0" style="stop-color:#FFFFFF">
        </stop>
        <stop offset="2.110928e-02" style="stop-color:#EEEEEE">
        </stop>
        <stop offset="0.1291" style="stop-color:#9B9B9B">
        </stop>
        <stop offset="0.2246" style="stop-color:#585858">
        </stop>
        <stop offset="0.3042" style="stop-color:#282828">
        </stop>
        <stop offset="0.3648" style="stop-color:#0B0B0B">
        </stop>
        <stop offset="0.3992" style="stop-color:#000000">
        </stop>
        <stop offset="0.5524" style="stop-color:#6B6B6B">
        </stop>
        <stop offset="0.677" style="stop-color:#BABABA">
        </stop>
        <stop offset="0.7648" style="stop-color:#ECECEC">
        </stop>
        <stop offset="0.808" style="stop-color:#FFFFFF">
        </stop>
        <stop offset="1" style="stop-color:#FFFFFF">
        </stop>
       </linearGradient>
       <polygon class="st11" points="-14.4,44.6 4.8,-6.7 53.3,11.4 34.1,62.7 						">
       </polygon>
      </g>
     </mask>
     <linearGradient id="SVGID_19_" gradientUnits="userSpaceOnUse" x1="32.1382" y1="445.0721" x2="33.9166" y2="445.0721" gradientTransform="matrix(10.9026 -29.2189 -29.2189 -10.9026 12666.5645 5838.3525)">
      <stop offset="0" style="stop-color:#8E9CAC">
      </stop>
      <stop offset="0.3992" style="stop-color:#8E9CAC">
      </stop>
      <stop offset="0.808" style="stop-color:#8E9CAC">
      </stop>
      <stop offset="1" style="stop-color:#8E9CAC">
      </stop>
     </linearGradient>
     <polygon class="st12" points="-14.4,44.6 4.8,-6.7 53.3,11.4 34.1,62.7 				">
     </polygon>
    </g>
   </g>
  </g>
  <g class="st13">
   <g>
    <defs>
     <rect id="SVGID_20_" y="6.1" width="38.7" height="43.9">
     </rect>
    </defs>
    <clipPath id="SVGID_21_">
     <use xlink:href="#SVGID_20_" style="overflow:visible;">
     </use>
    </clipPath>
    <g class="st14">
     <defs>
      <path id="SVGID_22_" d="M1.1,11.7C1.1,11.7,1.1,11.7,1.1,11.7C1,11.8,1,11.8,1,11.8c0,0,0,0.1-0.1,0.1c0,0,0,0,0,0
						c0,0,0,0.1-0.1,0.1v0c0,0.1-0.1,0.2-0.1,0.2l0,0c0,0,0,0,0,0C0.3,13,0,13.9,0,14.8c0.2,6.6,2.2,13.4,5.8,19.7
						c3.2,5.6,7.5,10.3,12.3,13.7c1.6,1.1,3.6,1.8,6.5,1.8h4.2c-0.4,0-0.7,0-1.1-0.1c-0.5-0.1-1-0.3-1.5-0.5
						c-0.2-0.1-0.4-0.2-0.6-0.4c0,0,0,0,0,0c-0.1,0-0.1-0.1-0.2-0.1c0,0,0,0,0,0c-0.1,0-0.1-0.1-0.2-0.1c0,0,0,0,0,0
						c-0.1,0-0.1-0.1-0.2-0.1c0,0,0,0,0,0c-0.1,0-0.1-0.1-0.2-0.1c0,0,0,0,0,0c-0.1,0-0.1-0.1-0.2-0.1c0,0,0,0,0,0
						c-0.1,0-0.1-0.1-0.2-0.1c0,0,0,0,0,0c-1.5-1-2.9-2.2-4.1-3.4c0,0,0,0,0,0c0,0-0.1-0.1-0.1-0.1v0c-0.2-0.2-0.4-0.4-0.5-0.6
						c0,0,0,0,0,0c0,0-0.1-0.1-0.1-0.1c0,0,0,0-0.1-0.1c0,0-0.1-0.1-0.1-0.1c0,0,0,0-0.1-0.1c0,0-0.1-0.1-0.1-0.1
						c-2-2.1-3.9-4.7-5.6-7.5c-6.4-11.1-6.9-17.3-1.2-20.4c0.1,0,0.1-0.1,0.2-0.1c5.5-2.8,14.9-4.8,25.9,0c0-0.1,0-0.2,0-0.3
						c0.2-6.5-5.4-9.2-18.2-9.2c-3.2,0-6.4,0.4-9.1,1c-0.1,0-0.1,0-0.2,0c-0.5,0.1-1,0.2-1.6,0.4c0,0,0,0,0,0C8.3,7.9,7.2,8.3,6,8.7
						c0,0-0.1,0-0.1,0c-0.1,0-0.2,0.1-0.4,0.1C5.5,8.9,5.4,9,5.4,9C5.2,9.1,5.1,9.1,4.9,9.2C4.8,9.2,4.7,9.3,4.6,9.3
						c-0.7,0.3-1.4,0.7-2,1C2,10.7,1.5,11.2,1.1,11.7">
      </path>
     </defs>
     <clipPath id="SVGID_23_">
      <use xlink:href="#SVGID_22_" style="overflow:visible;">
      </use>
     </clipPath>
     <defs>
      <filter id="Adobe_OpacityMaskFilter_3_" filterUnits="userSpaceOnUse" x="-21.4" y="-12.9" width="81.8" height="81.9">
       <feColorMatrix type="matrix" values="1 0 0 0 0  0 1 0 0 0  0 0 1 0 0  0 0 0 1 0">
       </feColorMatrix>
      </filter>
     </defs>
     <mask maskUnits="userSpaceOnUse" x="-21.4" y="-12.9" width="81.8" height="81.9" id="SVGID_24_">
      <g class="st15">
       <radialGradient id="SVGID_25_" cx="24.7309" cy="490.5004" r="1.7784" gradientTransform="matrix(-6.2039 -4.9723 -4.9723 6.2039 2607.342 -2900.3481)" gradientUnits="userSpaceOnUse">
        <stop offset="0" style="stop-color:#FFFFFF">
        </stop>
        <stop offset="1" style="stop-color:#000000">
        </stop>
       </radialGradient>
       <polygon class="st16" points="23.7,69 -21.4,32.8 15.2,-12.9 60.3,23.3 						">
       </polygon>
      </g>
     </mask>
     <radialGradient id="SVGID_26_" cx="24.7309" cy="490.5004" r="1.7784" gradientTransform="matrix(-6.2039 -4.9723 -4.9723 6.2039 2607.342 -2900.3481)" gradientUnits="userSpaceOnUse">
      <stop offset="0" style="stop-color:#FFFFFF">
      </stop>
      <stop offset="1" style="stop-color:#FFFFFF">
      </stop>
     </radialGradient>
     <polygon class="st17" points="23.7,69 -21.4,32.8 15.2,-12.9 60.3,23.3 				">
     </polygon>
    </g>
   </g>
  </g>
  <path class="st0" d="M28.2,50C28.2,50,28.3,50,28.2,50c0.1,0,0.1,0,0.1,0c0,0,0.1,0,0.1,0c0,0,0,0,0,0c0,0,0.1,0,0.1,0h0
		c0.1,0,0.2,0,0.3,0h0h0c0.9,0,1.8-0.2,2.6-0.7c5.6-3.4,10.5-8.6,14.1-14.9c3.2-5.6,5.2-11.6,5.7-17.5c0.2-2-0.3-4-1.7-6.5l-2.1-3.6
		c0.2,0.3,0.3,0.7,0.4,1c0.2,0.5,0.2,1,0.3,1.5c0,0.2,0,0.5,0,0.7c0,0,0,0,0,0c0,0.1,0,0.1,0,0.2c0,0,0,0,0,0c0,0.1,0,0.1,0,0.2
		c0,0,0,0,0,0c0,0.1,0,0.1,0,0.2c0,0,0,0,0,0c0,0.1,0,0.1,0,0.2c0,0,0,0,0,0c0,0.1,0,0.1,0,0.2c0,0,0,0,0,0c0,0.1,0,0.1,0,0.2
		c0,0,0,0,0,0c-0.2,1.8-0.5,3.6-0.9,5.3h0c0,0,0,0,0,0c0,0.1,0,0.1-0.1,0.2l0,0c-0.1,0.2-0.1,0.5-0.2,0.7c0,0,0,0,0,0
		c0,0,0,0.1,0,0.1c0,0,0,0,0,0.1c0,0,0,0.1,0,0.1c0,0,0,0.1,0,0.1c0,0,0,0.1,0,0.1c-0.9,2.8-2.1,5.7-3.7,8.6
		c-6.4,11.1-11.6,14.6-17,11.2c-0.1,0-0.1-0.1-0.2-0.1c-5.2-3.3-11.5-10.5-13-22.4c-0.1,0-0.2,0.1-0.2,0.1c-5.7,3-5.2,9.2,1.2,20.4
		h0c1.6,2.8,3.5,5.3,5.4,7.4c0,0,0.1,0.1,0.1,0.1c0.4,0.4,0.7,0.8,1.1,1.2c0,0,0,0,0,0c0.9,0.9,1.8,1.7,2.8,2.4c0,0,0.1,0,0.1,0.1
		c0.1,0.1,0.2,0.2,0.3,0.2c0.1,0,0.1,0.1,0.2,0.1c0.1,0.1,0.3,0.2,0.4,0.3c0.1,0.1,0.2,0.1,0.3,0.2c0.6,0.4,1.2,0.8,1.9,1.2
		C26.9,49.7,27.6,49.9,28.2,50">
  </path>
  <g class="st1">
   <g>
    <defs>
     <rect id="SVGID_27_" x="8.5" y="6.7" width="42.8" height="43.3">
     </rect>
    </defs>
    <clipPath id="SVGID_28_">
     <use xlink:href="#SVGID_27_" style="overflow:visible;">
     </use>
    </clipPath>
    <g class="st18">
     <defs>
      <path id="SVGID_29_" d="M28.2,50C28.2,50,28.3,50,28.2,50c0.1,0,0.1,0,0.1,0c0,0,0.1,0,0.1,0c0,0,0,0,0,0c0,0,0.1,0,0.1,0h0
						c0.1,0,0.2,0,0.3,0h0h0c0.9,0,1.8-0.2,2.6-0.7c5.6-3.4,10.5-8.6,14.1-14.9c3.2-5.6,5.2-11.6,5.7-17.5c0.2-2-0.3-4-1.7-6.5
						l-2.1-3.6c0.2,0.3,0.3,0.7,0.4,1c0.2,0.5,0.2,1,0.3,1.5c0,0.2,0,0.5,0,0.7c0,0,0,0,0,0c0,0.1,0,0.1,0,0.2c0,0,0,0,0,0
						c0,0.1,0,0.1,0,0.2c0,0,0,0,0,0c0,0.1,0,0.1,0,0.2c0,0,0,0,0,0c0,0.1,0,0.1,0,0.2c0,0,0,0,0,0c0,0.1,0,0.1,0,0.2c0,0,0,0,0,0
						c0,0.1,0,0.1,0,0.2c0,0,0,0,0,0c-0.2,1.8-0.5,3.6-0.9,5.3h0c0,0,0,0,0,0c0,0.1,0,0.1-0.1,0.2l0,0c-0.1,0.2-0.1,0.5-0.2,0.7
						c0,0,0,0,0,0c0,0,0,0.1,0,0.1c0,0,0,0,0,0.1c0,0,0,0.1,0,0.1c0,0,0,0.1,0,0.1c0,0,0,0.1,0,0.1c-0.9,2.8-2.1,5.7-3.7,8.6
						c-6.4,11.1-11.6,14.6-17,11.2c-0.1,0-0.1-0.1-0.2-0.1c-5.2-3.3-11.5-10.5-13-22.4c-0.1,0-0.2,0.1-0.2,0.1
						c-5.7,3-5.2,9.2,1.2,20.4h0c1.6,2.8,3.5,5.3,5.4,7.4c0,0,0.1,0.1,0.1,0.1c0.4,0.4,0.7,0.8,1.1,1.2c0,0,0,0,0,0
						c0.9,0.9,1.8,1.7,2.8,2.4c0,0,0.1,0,0.1,0.1c0.1,0.1,0.2,0.2,0.3,0.2c0.1,0,0.1,0.1,0.2,0.1c0.1,0.1,0.3,0.2,0.4,0.3
						c0.1,0.1,0.2,0.1,0.3,0.2c0.6,0.4,1.2,0.8,1.9,1.2C26.9,49.7,27.6,49.9,28.2,50">
      </path>
     </defs>
     <clipPath id="SVGID_30_">
      <use xlink:href="#SVGID_29_" style="overflow:visible;">
      </use>
     </clipPath>
     <defs>
      <filter id="Adobe_OpacityMaskFilter_4_" filterUnits="userSpaceOnUse" x="-2.5" y="-2.9" width="63.2" height="62.4">
       <feColorMatrix type="matrix" values="1 0 0 0 0  0 1 0 0 0  0 0 1 0 0  0 0 0 1 0">
       </feColorMatrix>
      </filter>
     </defs>
     <mask maskUnits="userSpaceOnUse" x="-2.5" y="-2.9" width="63.2" height="62.4" id="SVGID_31_">
      <g class="st19">
       <linearGradient id="SVGID_32_" gradientUnits="userSpaceOnUse" x1="44.4336" y1="464.7227" x2="46.212" y2="464.7227" gradientTransform="matrix(-20.802 -4.6839 -4.6839 20.802 3152.406 -9425.6895)">
        <stop offset="0" style="stop-color:#FFFFFF">
        </stop>
        <stop offset="0.2707" style="stop-color:#AEAEAE">
        </stop>
        <stop offset="0.5251" style="stop-color:#666666">
        </stop>
        <stop offset="0.5862" style="stop-color:#717171">
        </stop>
        <stop offset="0.6942" style="stop-color:#8F8F8F">
        </stop>
        <stop offset="0.8365" style="stop-color:#BFBFBF">
        </stop>
        <stop offset="1" style="stop-color:#FFFFFF">
        </stop>
       </linearGradient>
       <polygon class="st20" points="49.3,59.6 -2.5,47.9 9,-2.9 60.7,8.8 						">
       </polygon>
      </g>
     </mask>
     <linearGradient id="SVGID_33_" gradientUnits="userSpaceOnUse" x1="44.4336" y1="464.7227" x2="46.212" y2="464.7227" gradientTransform="matrix(-20.802 -4.6839 -4.6839 20.802 3152.4058 -9425.6885)">
      <stop offset="0" style="stop-color:#8E9CAC">
      </stop>
      <stop offset="0.5251" style="stop-color:#8E9CAC">
      </stop>
      <stop offset="1" style="stop-color:#8E9CAC">
      </stop>
     </linearGradient>
     <polygon class="st21" points="49.3,59.6 -2.5,47.9 9,-2.9 60.7,8.8 				">
     </polygon>
    </g>
   </g>
  </g>
  <g class="st13">
   <g>
    <defs>
     <rect id="SVGID_34_" x="8.5" y="6.7" width="42.8" height="43.3">
     </rect>
    </defs>
    <clipPath id="SVGID_35_">
     <use xlink:href="#SVGID_34_" style="overflow:visible;">
     </use>
    </clipPath>
    <g class="st22">
     <defs>
      <path id="SVGID_36_" d="M28.2,50C28.2,50,28.3,50,28.2,50c0.1,0,0.1,0,0.1,0c0,0,0.1,0,0.1,0c0,0,0,0,0,0c0,0,0.1,0,0.1,0h0
						c0.1,0,0.2,0,0.3,0h0h0c0.9,0,1.8-0.2,2.6-0.7c5.6-3.4,10.5-8.6,14.1-14.9c3.2-5.6,5.2-11.6,5.7-17.5c0.2-2-0.3-4-1.7-6.5
						l-2.1-3.6c0.2,0.3,0.3,0.7,0.4,1c0.2,0.5,0.2,1,0.3,1.5c0,0.2,0,0.5,0,0.7c0,0,0,0,0,0c0,0.1,0,0.1,0,0.2c0,0,0,0,0,0
						c0,0.1,0,0.1,0,0.2c0,0,0,0,0,0c0,0.1,0,0.1,0,0.2c0,0,0,0,0,0c0,0.1,0,0.1,0,0.2c0,0,0,0,0,0c0,0.1,0,0.1,0,0.2c0,0,0,0,0,0
						c0,0.1,0,0.1,0,0.2c0,0,0,0,0,0c-0.2,1.8-0.5,3.6-0.9,5.3h0c0,0,0,0,0,0c0,0.1,0,0.1-0.1,0.2l0,0c-0.1,0.2-0.1,0.5-0.2,0.7
						c0,0,0,0,0,0c0,0,0,0.1,0,0.1c0,0,0,0,0,0.1c0,0,0,0.1,0,0.1c0,0,0,0.1,0,0.1c0,0,0,0.1,0,0.1c-0.9,2.8-2.1,5.7-3.7,8.6
						c-6.4,11.1-11.6,14.6-17,11.2c-0.1,0-0.1-0.1-0.2-0.1c-5.2-3.3-11.5-10.5-13-22.4c-0.1,0-0.2,0.1-0.2,0.1
						c-5.7,3-5.2,9.2,1.2,20.4h0c1.6,2.8,3.5,5.3,5.4,7.4c0,0,0.1,0.1,0.1,0.1c0.4,0.4,0.7,0.8,1.1,1.2c0,0,0,0,0,0
						c0.9,0.9,1.8,1.7,2.8,2.4c0,0,0.1,0,0.1,0.1c0.1,0.1,0.2,0.2,0.3,0.2c0.1,0,0.1,0.1,0.2,0.1c0.1,0.1,0.3,0.2,0.4,0.3
						c0.1,0.1,0.2,0.1,0.3,0.2c0.6,0.4,1.2,0.8,1.9,1.2C26.9,49.7,27.6,49.9,28.2,50">
      </path>
     </defs>
     <clipPath id="SVGID_37_">
      <use xlink:href="#SVGID_36_" style="overflow:visible;">
      </use>
     </clipPath>
     <defs>
      <filter id="Adobe_OpacityMaskFilter_5_" filterUnits="userSpaceOnUse" x="2.2" y="1.9" width="54" height="52.9">
       <feColorMatrix type="matrix" values="1 0 0 0 0  0 1 0 0 0  0 0 1 0 0  0 0 0 1 0">
       </feColorMatrix>
      </filter>
     </defs>
     <mask maskUnits="userSpaceOnUse" x="2.2" y="1.9" width="54" height="52.9" id="SVGID_38_">
      <g class="st23">
       <radialGradient id="SVGID_39_" cx="105.1088" cy="439.2886" r="1.7784" gradientTransform="matrix(-0.6888 6.3371 6.3371 0.6888 -2681.3604 -936.4401)" gradientUnits="userSpaceOnUse">
        <stop offset="0" style="stop-color:#FFFFFF">
        </stop>
        <stop offset="0.1" style="stop-color:#FFFFFF">
        </stop>
        <stop offset="1" style="stop-color:#000000">
        </stop>
       </radialGradient>
       <polygon class="st24" points="56.1,7.2 50.9,54.8 2.2,49.5 7.3,1.9 						">
       </polygon>
      </g>
     </mask>
     <radialGradient id="SVGID_40_" cx="105.1088" cy="439.2886" r="1.7784" gradientTransform="matrix(-0.6888 6.3371 6.3371 0.6888 -2681.3599 -936.4399)" gradientUnits="userSpaceOnUse">
      <stop offset="0" style="stop-color:#FFFFFF">
      </stop>
      <stop offset="0.1" style="stop-color:#FFFFFF">
      </stop>
      <stop offset="1" style="stop-color:#FFFFFF">
      </stop>
     </radialGradient>
     <polygon class="st25" points="56.1,7.2 50.9,54.8 2.2,49.5 7.3,1.9 				">
     </polygon>
    </g>
   </g>
  </g>
  <path class="st0" d="M25.7,37.9c0.4,0.3,0.8,0.5,1.3,0.7c0.4,0.2,0.9,0.4,1.4,0.5c0.5,0.1,0.9,0.2,1.4,0.2c0.5,0,1-0.1,1.4-0.2
		c0.9-0.2,1.8-0.6,2.6-1.1c0.8-0.5,1.5-1.1,2.2-1.8c1.4-1.3,2.6-2.9,3.7-4.5c1.1-1.6,2.1-3.2,3.1-4.9l0.1,0.3L42.7,27l0.1-0.2
		c0.5-0.8,0.9-1.6,1.3-2.4c0.2-0.4,0.4-0.8,0.6-1.2c0.2-0.4,0.4-0.8,0.5-1.3c0.4-0.8,0.7-1.7,1-2.6l0.2-0.6l0.2-0.7
		c0.1-0.4,0.3-0.9,0.4-1.3l0,0v0c0,0,0,0,0,0l0,0l0,0v0c0.2-0.8,0.4-1.6,0.6-2.5c0.1-0.4,0.1-0.8,0.2-1.3c0-0.2,0.1-0.4,0.1-0.6
		c0-0.2,0.1-0.4,0.1-0.6c0-0.4,0.1-0.8,0.1-1.3c0-0.2,0-0.4,0-0.6l0-0.3l0-0.2l0,0v0v0v0v0v0l0-0.1c0-0.8-0.2-1.7-0.7-2.4l0,0l0,0
		l0,0l0,0c0.2,0.4,0.4,0.8,0.5,1.2c0.1,0.4,0.2,0.8,0.2,1.3l0,0.1v0v0v0v0v0v0.2l0,0.3c0,0.2,0,0.4,0,0.6c0,0.4,0,0.9-0.1,1.3
		c-0.1,0.8-0.2,1.7-0.3,2.5c-0.1,0.8-0.3,1.7-0.5,2.5l0,0l0,0c0,0,0,0,0,0l0,0c-0.1,0.4-0.2,0.9-0.4,1.3l-0.2,0.7
		c-0.1,0.2-0.1,0.4-0.2,0.7c-0.3,0.9-0.6,1.7-1,2.6c-0.2,0.4-0.4,0.9-0.5,1.3c-0.2,0.4-0.4,0.8-0.6,1.3c-0.4,0.8-0.8,1.6-1.3,2.4
		l-0.1-0.3h0l0.2,0.1L43.2,27c-0.5,0.8-1,1.7-1.5,2.5c-0.5,0.8-1.1,1.6-1.6,2.4c-0.6,0.8-1.2,1.6-1.8,2.3c-0.6,0.7-1.3,1.5-2,2.1
		c-0.7,0.7-1.5,1.3-2.3,1.8c-0.8,0.5-1.8,0.9-2.7,1.1c-1,0.2-2,0.2-2.9-0.1c-0.5-0.1-0.9-0.3-1.4-0.5C26.6,38.5,26.1,38.2,25.7,37.9
		">
  </path>
  <path class="st0" d="M38.7,15.5c0-0.5,0-1-0.1-1.4c-0.1-0.5-0.1-1-0.3-1.4c-0.1-0.5-0.3-0.9-0.6-1.3c-0.2-0.4-0.5-0.8-0.8-1.1
		c-0.6-0.7-1.4-1.3-2.3-1.7c-0.9-0.4-1.8-0.8-2.7-1c-1.9-0.5-3.8-0.8-5.7-0.9c-1.9-0.2-3.9-0.2-5.8-0.2l0.2-0.2l0,0.2h-0.2
		c-0.9,0-1.8,0-2.7,0.1c-0.5,0-0.9,0.1-1.4,0.1c-0.5,0-0.9,0.1-1.4,0.1c-0.9,0.1-1.8,0.3-2.7,0.4l-0.7,0.1L11,7.4
		c-0.4,0.1-0.9,0.2-1.3,0.3l0,0h0c0,0,0,0,0,0l0,0h0l0,0C8.8,7.9,8,8.2,7.2,8.4C6.8,8.6,6.4,8.7,6,8.9C5.8,9,5.6,9,5.4,9.1
		C5.2,9.2,5,9.3,4.8,9.4C4.4,9.5,4,9.7,3.6,9.9c-0.2,0.1-0.4,0.2-0.6,0.3l-0.3,0.1l-0.1,0.1l0,0l0,0c0,0,0,0,0,0l0,0l0,0l0,0l-0.1,0
		c-0.4,0.2-0.7,0.5-1,0.8c-0.3,0.3-0.6,0.6-0.8,1l0,0v0l0,0l0,0v0l0,0c0.2-0.4,0.5-0.7,0.7-1c0.3-0.3,0.6-0.6,1-0.8l0.1,0l0,0l0,0h0
		l0,0l0,0l0,0l0.1-0.1L3,10.1C3.2,10,3.4,9.8,3.6,9.8C4,9.6,4.3,9.4,4.7,9.2c0.8-0.4,1.6-0.7,2.4-1c0.8-0.3,1.6-0.6,2.4-0.8l0,0l0,0
		c0,0,0,0,0,0l0,0C10,7.2,10.4,7.1,10.9,7l0.7-0.2c0.2,0,0.5-0.1,0.7-0.1C13.1,6.5,14,6.4,15,6.3c0.5-0.1,0.9-0.1,1.4-0.2
		C16.8,6,17.2,6,17.7,6c0.9-0.1,1.8-0.1,2.8-0.1l-0.2,0.2l0-0.2h0.2c1,0,1.9,0,2.9,0.1c1,0,1.9,0.1,2.9,0.2c1,0.1,1.9,0.2,2.9,0.4
		c1,0.2,1.9,0.4,2.9,0.7c0.9,0.3,1.9,0.6,2.7,1.1c0.9,0.5,1.7,1.1,2.3,1.8c0.7,0.7,1.1,1.6,1.4,2.6c0.1,0.5,0.2,1,0.2,1.4
		C38.7,14.5,38.7,15,38.7,15.5">
  </path>
  <path class="st0" d="M12.8,15.5c-0.4,0.2-0.8,0.5-1.2,0.8c-0.4,0.3-0.8,0.6-1.1,1c-0.3,0.4-0.6,0.7-0.9,1.1
		c-0.2,0.4-0.4,0.9-0.6,1.3c-0.3,0.9-0.4,1.9-0.3,2.8c0,1,0.2,1.9,0.5,2.8c0.5,1.9,1.2,3.7,2,5.4c0.8,1.7,1.7,3.4,2.7,5.1l-0.3-0.1
		l0.2-0.1l0.1,0.2c0.5,0.8,0.9,1.6,1.4,2.3c0.3,0.4,0.5,0.8,0.8,1.1c0.3,0.4,0.5,0.7,0.8,1.1c0.6,0.7,1.1,1.4,1.7,2.1l0.4,0.5
		l0.5,0.5c0.3,0.3,0.6,0.7,0.9,1l0,0c0,0,0,0,0,0l0,0l0,0h0c0.6,0.6,1.2,1.1,1.8,1.7c0.6,0.5,1.3,1.1,1.9,1.5c0.7,0.5,1.3,1,2,1.4
		l0.1,0l0,0l0,0c0,0,0,0,0,0l0,0l0,0l0,0c0,0,0.1,0,0.1,0.1c0.1,0,0.2,0.1,0.3,0.1c0.2,0.1,0.4,0.2,0.6,0.2c0.4,0.1,0.8,0.2,1.2,0.2
		c0.1,0,0.2,0,0.3,0h0h0h0h0c-0.1,0-0.2,0-0.3,0h0c-0.4,0-0.8-0.1-1.2-0.2c-0.2-0.1-0.4-0.1-0.6-0.2c-0.1,0-0.2-0.1-0.3-0.1
		c0,0-0.1,0-0.1-0.1l0,0l0,0l0,0l0,0l0,0l-0.1,0c-0.7-0.4-1.4-0.9-2.1-1.3c-0.7-0.5-1.3-1-2-1.5c-0.6-0.5-1.3-1.1-1.9-1.7l0,0l0,0
		c0,0,0,0,0,0l0,0c-0.3-0.3-0.7-0.7-1-1l-0.5-0.5c-0.2-0.2-0.3-0.3-0.5-0.5c-0.6-0.7-1.2-1.4-1.8-2.1c-0.3-0.4-0.6-0.7-0.8-1.1
		c-0.3-0.4-0.5-0.8-0.8-1.1c-0.5-0.8-1-1.5-1.5-2.3l0.3,0.1l-0.2,0.1l-0.1-0.2c-0.5-0.8-1-1.7-1.4-2.6c-0.5-0.9-0.9-1.7-1.3-2.6
		c-0.4-0.9-0.8-1.8-1.1-2.7c-0.3-0.9-0.6-1.8-0.9-2.8c-0.2-1-0.4-1.9-0.4-2.9c0-1,0.1-2,0.4-2.9c0.3-0.9,0.9-1.8,1.5-2.5
		c0.3-0.3,0.7-0.6,1.1-0.9C11.9,15.9,12.3,15.7,12.8,15.5">
  </path>
 </g>
</svg>